<?xml version="1.0" encoding="UTF-8" standalone="no"?>
<svg
   xmlns:dc="http://purl.org/dc/elements/1.1/"
   xmlns:cc="http://creativecommons.org/ns#"
   xmlns:rdf="http://www.w3.org/1999/02/22-rdf-syntax-ns#"
   xmlns:svg="http://www.w3.org/2000/svg"
   xmlns="http://www.w3.org/2000/svg"
   id="svg4016"
   version="1.1"
   viewBox="0 0 50.664539 50.575439"
   height="24"
   width="24">
  <defs
     id="defs4010" />
  <metadata
     id="metadata4013">
    <rdf:RDF>
      <cc:Work
         rdf:about="">
        <dc:format>image/svg+xml</dc:format>
        <dc:type
           rdf:resource="http://purl.org/dc/dcmitype/StillImage" />
        <dc:title></dc:title>
      </cc:Work>
    </rdf:RDF>
  </metadata>
  <g
     transform="translate(-7.1736442,-8.640855)"
     id="layer1">
    <path
       style="fill:#f06a35;stroke-width:0.28222224"
       d="m 12.962782,59.017202 c -0.94811,-0.249399 -1.76622,-0.616289 -2.52077,-1.13047 -0.6369601,-0.43403 -1.5679101,-1.331354 -1.9219601,-1.852422 -0.4324,-0.63641 -0.92942,-1.726298 -1.13199,-2.482143 -0.2066,-0.771004 -0.20995,-1.078035 -0.21366,-19.584816 -0.004,-18.413338 5.7e-4,-18.818231 0.20302,-19.609546 0.71614,-2.7984 2.9337701,-4.9275471 5.7939101,-5.5627271 0.82235,-0.182629 37.55807,-0.214571 38.44512,-0.03342 2.40143,0.490387 4.28914,1.9321471 5.38148,4.1101781 0.86844,1.73156 0.7908,-0.173911 0.83057,20.385152 0.0253,13.080974 0.002,18.572639 -0.0815,19.256831 -0.39109,3.201585 -2.59945,5.684829 -5.77713,6.496275 -0.81285,0.207547 -1.09562,0.21051 -19.55098,0.204864 -17.84411,-0.0054 -18.76057,-0.01469 -19.45609,-0.197752 z"
       id="path4195" />
    <path
       style="fill:#ffffff;stroke-width:0.28222224"
       d="m 39.674912,49.516416 c 2.27605,-0.310472 4.05963,-1.222727 5.73287,-2.932176 1.21045,-1.236644 1.96817,-2.5752 2.46334,-4.351644 0.20572,-0.737984 0.22296,-1.097299 0.26066,-5.430377 0.0285,-3.270379 0.005,-4.80205 -0.0804,-5.188734 -0.12343,-0.560474 -0.47332,-1.080956 -0.87255,-1.297971 -0.12285,-0.06678 -0.90997,-0.151889 -1.74917,-0.189131 -1.40622,-0.06241 -1.56355,-0.08984 -2.00741,-0.349956 -0.70405,-0.412603 -0.89795,-0.85815 -0.89988,-2.067777 -0.004,-2.311231 -0.9655,-4.456958 -2.86593,-6.393561 -1.3539,-1.379672 -2.86424,-2.313543 -4.58797,-2.83682 -0.41265,-0.125273 -1.33663,-0.167902 -4.43155,-0.204475 -4.85619,-0.05738 -5.93412,0.04216 -7.58734,0.700659 -3.04793,1.21403 -5.23792,3.772583 -6.03678,7.052711 -0.15004,0.616077 -0.17917,1.603446 -0.21461,7.275308 -0.0444,7.105644 0.005,8.149074 0.44857,9.557213 0.36683,1.163412 0.73695,1.876337 1.49942,2.888228 1.45255,1.927681 3.62945,3.319884 5.80588,3.713047 1.03573,0.187142 13.8142,0.233963 15.1229,0.05546 z"
       id="path4163" />
    <path
       style="fill:#f06a35;stroke-width:0.28222224"
       d="m 26.244892,30.010008 c -1.16358,-0.320734 -1.59836,-1.990171 -0.74315,-2.853574 0.54659,-0.551846 0.6977,-0.572857 4.1191,-0.572857 3.07153,0 3.17477,0.0067 3.62596,0.234608 0.652,0.329384 0.93531,0.793787 0.93531,1.533178 0,0.667791 -0.26607,1.135775 -0.85955,1.511839 -0.31867,0.201927 -0.5091,0.214495 -3.51853,0.23217 -1.85829,0.01092 -3.33865,-0.02461 -3.55914,-0.08536 z"
       id="path4168" />
    <path
       style="fill:#f06a35;stroke-width:0.28222224"
       d="m 26.099102,41.244874 c -0.49946,-0.21763 -0.96459,-0.82219 -1.04497,-1.35823 -0.0766,-0.510622 0.18005,-1.212623 0.57341,-1.568617 0.49586,-0.448741 0.71348,-0.463711 6.81136,-0.468511 6.27278,-0.0049 6.24013,-0.0076 6.83495,0.547831 0.84013,0.784418 0.66292,2.180984 -0.34949,2.754386 l -1.04037,0.169185 -5.42237,0.06347 c -4.76477,0.05577 -6.11452,-0.03144 -6.36252,-0.139512 z"
       id="path4166" />
  </g>
</svg>
