<?xml version="1.0" encoding="UTF-8" standalone="no"?>
<svg
   xmlns:dc="http://purl.org/dc/elements/1.1/"
   xmlns:cc="http://creativecommons.org/ns#"
   xmlns:rdf="http://www.w3.org/1999/02/22-rdf-syntax-ns#"
   xmlns:svg="http://www.w3.org/2000/svg"
   xmlns="http://www.w3.org/2000/svg"
   id="svg3891"
   version="1.1"
   viewBox="0 0 10.5 10.5"
   height="24">
  <defs
     id="defs3885" />
  <metadata
     id="metadata3888">
    <rdf:RDF>
      <cc:Work
         rdf:about="">
        <dc:format>image/svg+xml</dc:format>
        <dc:type
           rdf:resource="http://purl.org/dc/dcmitype/StillImage" />
        <dc:title></dc:title>
      </cc:Work>
    </rdf:RDF>
  </metadata>
  <g
     transform="translate(-120.27772,-139.79913)"
     id="layer1">
    <path
       id="path24"
       style="fill:#1b1817;fill-opacity:1;fill-rule:evenodd;stroke:none;stroke-width:0.03307291"
       d="m 125.4876,139.79913 c -2.97458,0 -5.38692,2.41201 -5.38692,5.38758 0,2.37993 1.54352,4.39936 3.68433,5.11208 0.26954,0.0493 0.36777,-0.11707 0.36777,-0.25995 0,-0.12799 -0.005,-0.46666 -0.007,-0.91612 -1.49853,0.32544 -1.81471,-0.72231 -1.81471,-0.72231 -0.24507,-0.62243 -0.59829,-0.78813 -0.59829,-0.78813 -0.48915,-0.33404 0.037,-0.32742 0.037,-0.32742 0.54075,0.038 0.82517,0.55529 0.82517,0.55529 0.48055,0.82319 1.26107,0.58539 1.56799,0.44748 0.0489,-0.34793 0.18819,-0.58539 0.34197,-0.72 -1.19624,-0.13626 -2.45401,-0.59829 -2.45401,-2.6627 0,-0.58837 0.21002,-1.06892 0.55464,-1.44562 -0.0556,-0.13626 -0.24044,-0.68395 0.0529,-1.42577 0,0 0.45211,-0.14486 1.48134,0.55199 0.42962,-0.1194 0.89065,-0.17893 1.34871,-0.18124 0.45773,0.002 0.91844,0.0618 1.34872,0.18124 1.02856,-0.69685 1.48001,-0.55199 1.48001,-0.55199 0.29402,0.74182 0.10914,1.28951 0.0539,1.42577 0.34528,0.3767 0.55364,0.85725 0.55364,1.44562 0,2.0697 -1.25975,2.52512 -2.45963,2.6584 0.19314,0.16636 0.36545,0.4951 0.36545,0.99781 0,0.72 -0.007,1.30109 -0.007,1.4777 0,0.1442 0.0972,0.31188 0.37042,0.25929 2.13915,-0.71404 3.68134,-2.73182 3.68134,-5.11142 0,-2.97557 -2.41234,-5.38758 -5.38791,-5.38758" />
  </g>
</svg>
